# xmcd CD database file
#
# Track frame offsets:
#	182
#	17412
#	35437
#	40745
#	67037
#	90600
#	98637
#	123962
#	140450
#	154150
#	158562
#
# Disc length: 2353 seconds
#
# Revision: 0
# Processed by: cddbd v1.5.2PL0 Copyright (c) Steve Scherf et al.
# Submitted via: CDex 1.82
#
DISCID=7f092f0b
DTITLE=Andreas Vollenweider - Dancing with the Lion
DYEAR=1989
DGENRE=New Age
TTITLE0=Unto the Burning Circle
TTITLE1=Dancing With The Lion
TTITLE2=Hippolyte
TTITLE3=Dance Of The Masks
TTITLE4=Pearls and Tears
TTITLE5=Garden Of My Childhood
TTITLE6=Still Life
TTITLE7=And The Long Shadows
TTITLE8=See, My Love...
TTITLE9=Silver Dew, Golden Grass
TTITLE10=Ascent From The Circle
EXTD=YEAR: 1989
EXTT0=
EXTT1=
EXTT2=
EXTT3=
EXTT4=
EXTT5=
EXTT6=
EXTT7=
EXTT8=
EXTT9=
EXTT10=
PLAYORDER=
